<svg xmlns="http://www.w3.org/2000/svg" width="1640" height="624" viewBox="0 0 1640 624" role="img" aria-labelledby="title desc">
  <title id="title">Cholbei wide social media cover</title>
  <desc id="desc">Wide Cholbei cover for social platforms with centered, crop-safe branding.</desc>
  <defs>
    <pattern id="grid" width="52" height="52" patternUnits="userSpaceOnUse">
      <path d="M52 0H0V52" fill="none" stroke="#fffdf7" stroke-opacity=".045"/>
    </pattern>
    <linearGradient id="violet" x1="0" y1="0" x2="1" y2="1">
      <stop stop-color="#7157ff"/>
      <stop offset="1" stop-color="#5038db"/>
    </linearGradient>
  </defs>
  <rect width="1640" height="624" fill="#11110f"/>
  <rect width="1640" height="624" fill="url(#grid)"/>
  <path d="M1265-80h455v784h-570c175-178 214-530 115-784Z" fill="url(#violet)"/>
  <circle cx="1495" cy="92" r="260" fill="none" stroke="#c9ff4a" stroke-opacity=".27" stroke-width="2"/>
  <circle cx="1495" cy="92" r="195" fill="none" stroke="#fffdf7" stroke-opacity=".16" stroke-width="2"/>
  <path d="M0 535h1110l-82 89H0Z" fill="#c9ff4a"/>
  <g transform="translate(360 123) scale(4.3)" fill="none" stroke="#c9ff4a" stroke-width="5.4" stroke-linecap="round" stroke-linejoin="round">
    <path d="M43.5 16.5a21 21 0 1 0 3.2 31.8"/>
    <path d="m38 43.7 9.5 4.7 4.2-9.8"/>
  </g>
  <text x="655" y="258" fill="#c9ff4a" font-family="Arial,Helvetica,sans-serif" font-size="78" font-weight="900" letter-spacing="-4">cholbei</text>
  <text x="655" y="340" fill="#fffdf7" font-family="Arial,Helvetica,sans-serif" font-size="40" font-weight="800" letter-spacing="-1.5">Own your website.</text>
  <text x="655" y="395" fill="#fffdf7" font-family="Georgia,Times New Roman,serif" font-size="43" font-style="italic">Own your infrastructure.</text>
  <text x="660" y="450" fill="#aaa7a0" font-family="Arial,Helvetica,sans-serif" font-size="17" font-weight="700" letter-spacing="3">COMPLETE, CLIENT-OWNED WEB SYSTEMS</text>
</svg>
