<svg xmlns="http://www.w3.org/2000/svg" width="2560" height="1440" viewBox="0 0 2560 1440" role="img" aria-labelledby="title desc">
  <title id="title">Cholbei YouTube and universal social cover</title>
  <desc id="desc">Dark Cholbei brand cover with a central safe-area wordmark and ownership message.</desc>
  <defs>
    <pattern id="grid" width="80" height="80" patternUnits="userSpaceOnUse">
      <path d="M80 0H0V80" fill="none" stroke="#fffdf7" stroke-opacity=".04" stroke-width="2"/>
    </pattern>
    <linearGradient id="violet" x1="0" y1="0" x2="1" y2="1">
      <stop stop-color="#7157ff"/>
      <stop offset="1" stop-color="#4d37d5"/>
    </linearGradient>
  </defs>
  <rect width="2560" height="1440" fill="#11110f"/>
  <rect width="2560" height="1440" fill="url(#grid)"/>
  <path d="M1910-140h790v1720h-980c360-360 420-1120 190-1720Z" fill="url(#violet)"/>
  <circle cx="2240" cy="215" r="510" fill="none" stroke="#c9ff4a" stroke-opacity=".25" stroke-width="4"/>
  <circle cx="2240" cy="215" r="385" fill="none" stroke="#fffdf7" stroke-opacity=".13" stroke-width="4"/>
  <path d="M0 1260h1720l-165 180H0Z" fill="#c9ff4a"/>
  <path d="M0 0h610L455 180H0Z" fill="#ff6433"/>
  <g transform="translate(570 480) scale(5)" fill="none" stroke="#c9ff4a" stroke-width="5.5" stroke-linecap="round" stroke-linejoin="round">
    <path d="M43.5 16.5a21 21 0 1 0 3.2 31.8"/>
    <path d="m38 43.7 9.5 4.7 4.2-9.8"/>
  </g>
  <text x="905" y="640" fill="#c9ff4a" font-family="Arial,Helvetica,sans-serif" font-size="94" font-weight="900" letter-spacing="-5">cholbei</text>
  <text x="905" y="745" fill="#fffdf7" font-family="Arial,Helvetica,sans-serif" font-size="55" font-weight="800" letter-spacing="-2">Own your website.</text>
  <text x="905" y="815" fill="#fffdf7" font-family="Georgia,Times New Roman,serif" font-size="58" font-style="italic">Own your infrastructure.</text>
  <text x="910" y="872" fill="#aaa7a0" font-family="Arial,Helvetica,sans-serif" font-size="22" font-weight="700" letter-spacing="4">BUILD  •  OWN  •  GROW</text>
</svg>
